<svg xmlns="http://www.w3.org/2000/svg" xmlns:xlink="http://www.w3.org/1999/xlink" viewBox="0,0,256,256" width="512px" height="512px" fill-rule="nonzero"><defs><radialGradient cx="32" cy="32.5" r="51.925" gradientUnits="userSpaceOnUse" id="color-1"><stop offset="0" stop-color="#9d4edd"></stop><stop offset="0.642" stop-color="#e9d4fa"></stop><stop offset="1" stop-color="#ffffff"></stop></radialGradient><linearGradient x1="32" y1="56.075" x2="32" y2="4.49" gradientUnits="userSpaceOnUse" id="color-2"><stop offset="0.128" stop-color="#eaedef"></stop><stop offset="0.202" stop-color="#f3f4f4"></stop><stop offset="0.657" stop-color="#ffffff"></stop><stop offset="1" stop-color="#f5f6f7"></stop></linearGradient><linearGradient x1="32" y1="27" x2="32" y2="18" gradientUnits="userSpaceOnUse" id="color-3"><stop offset="0.284" stop-color="#9d4edd"></stop><stop offset="0.34" stop-color="#9d4edd"></stop><stop offset="0.515" stop-color="#9d4edd"></stop><stop offset="1" stop-color="#8d00ff"></stop></linearGradient><linearGradient x1="32" y1="46" x2="32" y2="25" gradientUnits="userSpaceOnUse" id="color-4"><stop offset="0" stop-color="#9d4edd"></stop><stop offset="1" stop-color="#8d00ff"></stop></linearGradient></defs><g fill="none" fill-rule="nonzero" stroke="none" stroke-width="1" stroke-linecap="butt" stroke-linejoin="miter" stroke-miterlimit="10" stroke-dasharray="" stroke-dashoffset="0" font-family="none" font-weight="none" font-size="none" text-anchor="none" style="mix-blend-mode: normal"><g transform="scale(4,4)"><path d="M60.5,31c1.995,0 3.6,-1.669 3.495,-3.688c-0.099,-1.893 -1.798,-3.312 -3.693,-3.312h-0.802c-0.828,0 -1.5,-0.671 -1.5,-1.5c0,-0.829 0.672,-1.5 1.5,-1.5h0.802c1.895,0 3.594,-1.419 3.693,-3.312c0.105,-2.019 -1.5,-3.688 -3.495,-3.688h-1.393c-0.996,0 -1.92,-0.681 -2.08,-1.664c-0.204,-1.253 0.758,-2.336 1.973,-2.336h0.302c1.895,0 3.594,-1.419 3.693,-3.312c0.106,-2.019 -1.5,-3.688 -3.495,-3.688h-54.802c-1.895,0 -3.594,1.419 -3.693,3.312c-0.106,2.019 1.5,3.688 3.495,3.688h0.393c0.996,0 1.92,0.681 2.08,1.664c0.204,1.253 -0.758,2.336 -1.973,2.336h-1.302c-1.895,0 -3.594,1.419 -3.693,3.312c-0.106,2.019 1.5,3.688 3.495,3.688c0.828,0 1.5,0.671 1.5,1.5c0,0.829 -0.672,1.5 -1.5,1.5h0.198c-1.895,0 -3.594,1.419 -3.693,3.312c-0.106,2.019 1.5,3.688 3.495,3.688v0c0.828,0 1.5,0.672 1.5,1.5v0c0,0.828 -0.672,1.5 -1.5,1.5v0c-1.995,0 -3.6,1.669 -3.495,3.688c0.099,1.893 1.798,3.312 3.693,3.312h0.802c0.828,0 1.5,0.671 1.5,1.5c0,0.828 -0.672,1.5 -1.5,1.5h-0.802c-1.895,0 -3.594,1.419 -3.693,3.312c-0.106,2.019 1.5,3.688 3.495,3.688h1.393c0.996,0 1.92,0.681 2.08,1.664c0.203,1.253 -0.758,2.336 -1.973,2.336h-0.302c-1.895,0 -3.594,1.419 -3.693,3.312c-0.106,2.019 1.5,3.688 3.495,3.688h54.802c1.895,0 3.594,-1.419 3.693,-3.312c0.105,-2.019 -1.5,-3.688 -3.495,-3.688h-0.5c-1.105,0 -2,-0.896 -2,-2v0c0,-1.104 0.895,-2 2,-2h1.302c1.895,0 3.594,-1.419 3.693,-3.312c0.105,-2.019 -1.5,-3.688 -3.495,-3.688c-0.828,0 -1.5,-0.672 -1.5,-1.5v0c0,-0.829 0.672,-1.5 1.5,-1.5h-0.198c1.895,0 3.594,-1.419 3.693,-3.312c0.106,-2.019 -1.5,-3.688 -3.495,-3.688v0c-0.828,0 -1.5,-0.672 -1.5,-1.5v0c0,-0.828 0.672,-1.5 1.5,-1.5z" fill="url(#color-1)"></path><path d="M18,8h28c5.523,0 10,4.477 10,10v28c0,5.523 -4.477,10 -10,10h-28c-5.523,0 -10,-4.477 -10,-10v-28c0,-5.523 4.477,-10 10,-10z" fill="url(#color-2)"></path><path d="M14,27v-7c0,-1.105 0.895,-2 2,-2h6.757c0.796,0 1.559,0.316 2.121,0.879l1.243,1.243c0.563,0.562 1.326,0.878 2.122,0.878h19.757c1.105,0 2,0.895 2,2v4z" fill="url(#color-3)"></path><path d="M47,27h-30c-0.552,0 -1,-0.448 -1,-1v-2c0,-0.552 0.448,-1 1,-1h30c0.552,0 1,0.448 1,1v2c0,0.552 -0.448,1 -1,1z" fill="#ffffff"></path><path d="M14,27v17c0,1.105 0.895,2 2,2h32c1.105,0 2,-0.895 2,-2v-17c0,-1.105 -0.895,-2 -2,-2h-32c-1.105,0 -2,0.895 -2,2z" fill="url(#color-4)"></path></g></g></svg>